<svg id="Capa_1" enable-background="new 0 0 512 512" height="512" viewBox="0 0 512 512" width="512" xmlns="http://www.w3.org/2000/svg"><g id="XMLID_3065_"><g id="XMLID_1594_"><g id="XMLID_1597_"><circle id="XMLID_978_" cx="294.707" cy="161.292" fill="#fff2a0" r="60"/></g><g id="XMLID_1596_"><circle id="XMLID_976_" cx="294.707" cy="161.292" fill="#fff" r="20"/></g></g><g id="XMLID_1590_"><g id="XMLID_1593_"><circle id="XMLID_975_" cx="151.344" cy="70" fill="#fff2a0" r="60"/></g><g id="XMLID_1592_"><circle id="XMLID_618_" cx="151.344" cy="70" fill="#fff" r="20"/></g></g><g id="XMLID_1566_"><g id="XMLID_1577_"><path id="XMLID_611_" d="m475 294.091-41.392-11.249c-6.918-18.898-17.808-35.878-31.651-49.943v-86.215c-29.229 0-53.059 23.079-54.282 52.008-14.193-4.86-29.416-7.501-45.256-7.501h-77.162c-77.132 0-139.661 62.528-139.661 139.661 0 53.502 30.09 99.969 74.265 123.424l10.309 47.724h55.087v-31.489h77.162c.691 0 1.379-.016 2.067-.026v31.515h55.087l10.583-48.997c29.125-16.185 51.861-42.476 63.452-74.143l41.392-11.249z" fill="#ffda8f"/></g><g id="XMLID_1567_"><circle id="XMLID_608_" cx="355.236" cy="280.641" fill="#fff" r="20"/></g></g><g id="XMLID_615_" fill="#ffa96b"><path id="XMLID_977_" d="m151.344 140c38.598 0 70-31.402 70-70s-31.402-70-70-70-70 31.402-70 70 31.402 70 70 70zm0-120c27.57 0 50 22.43 50 50s-22.43 50-50 50-50-22.43-50-50 22.429-50 50-50z"/><path id="XMLID_990_" d="m477.623 284.44-36.509-9.922c-6.857-16.899-16.642-32.216-29.157-45.636v-82.199c0-5.522-4.478-10-10-10-14.35 0-27.602 4.663-38.305 12.581-5.722-32.884-34.449-57.972-68.945-57.972-38.598 0-70 31.402-70 70 0 6.759.981 13.468 2.882 19.898h-2.332c-54.27 0-101.884 29.038-128.126 72.391-5.603-6.636-13.975-10.862-23.32-10.862-16.827 0-30.517 13.689-30.517 30.517 0 16.42 13.036 29.846 29.302 30.487-8.682 9.911-21.416 16.188-35.596 16.188-5.523 0-10 4.478-10 10s4.477 10 10 10c14.37 0 27.691-4.54 38.636-12.239-.022 1.058-.04 2.117-.04 3.18 0 53.945 28.79 103.321 75.452 129.983l9.348 43.276c.994 4.604 5.065 7.889 9.774 7.889h55.087c5.523 0 10-4.478 10-10v-21.488h59.229v21.488c0 5.522 4.478 10 10 10h55.087c4.709 0 8.78-3.285 9.774-7.889l9.647-44.659c28.045-16.726 49.864-42.117 62.118-72.269l36.511-9.922c4.354-1.184 7.377-5.138 7.377-9.65v-73.521c0-4.512-3.022-8.466-7.377-9.65zm-182.916-173.148c27.57 0 50 22.43 50 50 0 5.488-.841 10.785-2.487 15.758-1.127 2.825-2.073 5.744-2.797 8.756-12.043-3.066-24.443-4.616-37.005-4.616h-53.567c-2.707-6.246-4.144-13.029-4.144-19.898 0-27.57 22.43-50 50-50zm-220.896 151.428c5.726 0 10.389 4.601 10.507 10.299-.03 3.266-.392 6.454-1.054 9.532-3.067.793-6.23 1.204-9.452 1.204-5.799 0-10.517-4.718-10.517-10.518-.002-5.799 4.716-10.517 10.516-10.517zm391.189 97.247-34.014 9.243c-3.131.851-5.653 3.167-6.769 6.213-10.696 29.221-31.621 53.668-58.919 68.839-2.518 1.399-4.31 3.815-4.917 6.63l-8.879 41.108h-37.017v-21.515c0-2.677-1.073-5.242-2.979-7.121-1.905-1.878-4.49-2.886-7.162-2.853h-79.087c-5.523 0-10 4.478-10 10v21.489h-37.016l-8.605-39.836c-.622-2.88-2.482-5.339-5.085-6.721-42.533-22.583-68.955-66.492-68.955-114.593 0-71.495 58.166-129.66 129.661-129.66h77.161c14.388 0 28.524 2.343 42.018 6.962 2.982 1.021 6.275.576 8.88-1.204 2.604-1.779 4.217-4.683 4.351-7.834.861-20.36 15.23-36.945 34.291-41.307v75.091c0 2.624 1.032 5.144 2.873 7.015 13.116 13.328 23.004 28.928 29.388 46.366 1.115 3.046 3.638 5.362 6.769 6.213l34.012 9.243z"/><path id="XMLID_995_" d="m206.296 322.567c-1.621-.573-3.269-1.167-4.921-1.776v-32.778c3.746 1.434 6.153 3.134 6.302 3.241 4.397 3.286 10.632 2.409 13.952-1.975 3.335-4.402 2.47-10.675-1.932-14.01-.473-.358-7.648-5.685-18.322-8.093v-6.536c0-5.522-4.477-10-10-10s-10 4.478-10 10v6.479c-.934.214-1.874.45-2.824.735-12.088 3.632-21.119 13.947-23.569 26.922-2.249 11.907 1.608 23.425 10.065 30.058 4.186 3.283 9.341 6.284 16.329 9.428v43.703c-5.202-.582-8.896-2.136-14.838-6.024-4.622-3.022-10.819-1.728-13.843 2.894s-1.728 10.819 2.894 13.843c10.08 6.594 17.086 8.744 25.788 9.37v6.594c0 5.522 4.477 10 10 10s10-4.478 10-10v-7.78c16.686-4.461 27.379-18.808 29.759-32.962 3.136-18.667-6.614-34.89-24.84-41.333zm-28.906-13.469c-2.518-1.976-3.6-6.14-2.755-10.61.678-3.59 2.792-7.799 6.741-10.18v23.498c-1.462-.882-2.807-1.784-3.986-2.708zm34.021 51.485c-.935 5.559-4.342 11.396-10.036 14.783v-33.247c10.998 4.81 10.717 14.413 10.036 18.464z"/></g></g></svg>